# xmcd
#
# Track frame offsets: 
#        150
#        11700
#        21660
#        33050
#        48692
#        58795
#        69965
#        84005
#        100710
#        112190
#        122910
#        135662
#        151887
#        162592
#        176162
#        187010
#        202042
#        213747
#        227067
#        240497
#        256627
#
# Disc length: 3582 seconds
#
# Revision: 2
# Processed by: cddbd v1.5.2PL0 Copyright (c) Steve Scherf et al.
# Submitted via: ExactAudioCopyFreeDBPlugin 1.0
#
DISCID=280dfc15
DTITLE=Various Artist - A Celebration of Country 'N' Pop Music - Disc
DTITLE=4
DYEAR=1996
DGENRE=Country
TTITLE0=Hank Thompson - Paper Doll
TTITLE1=Eddy Arnold - The Glory Of Love
TTITLE2=Charlie Rich - I'm Gonna Sit Right Down And Write Myself A Let
TTITLE2=ter
TTITLE3=Tennessee Ernie Ford - Try A Little Tenderness
TTITLE4=Slim Whitman - It's A Sin To Tell A Lie
TTITLE5=Jim Reeves - Moon River
TTITLE6=Waylon Jennings - Sweet Caroline
TTITLE7=Conway Twitty - Three Times A Lady
TTITLE8=Leroy Van Dyke - Put Your Head On My Shoulder
TTITLE9=Hank Williams, Jr - I Fought The Law
TTITLE10=Sonny James - My Love
TTITLE11=Connie Smith - You Light Up My Life
TTITLE12=Loretta Lynn - These Boots Are Made For Walkin'
TTITLE13=Emmylou Harris - Pledging My Love
TTITLE14=Brenda Lee - Fly Me To The Moon (In Other Words)
TTITLE15=Barbara Mandrell - When A Man Loves A Woman
TTITLE16=Reba McEntire - Tears On My Pillow
TTITLE17=Dolly Parton - (Your Love Keeps Lifting Me) Higher And Higher
TTITLE18=Billie Joe Spears - What The World Needs Now Is Love
TTITLE19=Tanya Tucker - Baby, I'm Yours
TTITLE20=Kitty Wells - Sincerely
EXTD=
EXTT0=
EXTT1=
EXTT2=
EXTT3=
EXTT4=
EXTT5=
EXTT6=
EXTT7=
EXTT8=
EXTT9=
EXTT10=
EXTT11=
EXTT12=
EXTT13=
EXTT14=
EXTT15=
EXTT16=
EXTT17=
EXTT18=
EXTT19=
EXTT20=
PLAYORDER=
